<svg version="1.2" xmlns="http://www.w3.org/2000/svg" viewBox="0 0 245 245" width="245" height="245">
	<title>43867679</title>
	<style>
		.s0 { fill: #000000;stroke: #000000;stroke-linecap: round;stroke-width: 2.2 } 
		.s1 { fill: none;stroke: #000000;stroke-linecap: round;stroke-width: 3.3 } 
		.s2 { fill: none;stroke: #000000;stroke-width: 3.5 } 
	</style>
	<g id="Folder 1">
		<path id="Shape 4" class="s0" d="m140 87c-2.2 0-4-1.8-4-4 0-2.2 1.8-4 4-4 2.2 0 4 1.8 4 4 0 2.2-1.8 4-4 4z"/>
		<path id="Shape 4 copy" class="s0" d="m79 91c-1.7 0-3-1.3-3-3 0-1.7 1.3-3 3-3 1.7 0 3 1.3 3 3 0 1.7-1.3 3-3 3z"/>
		<path id="Shape 3" class="s1" d="m122 127.6c-11.5 15.2-19.5-4-19.8-3.9-0.4 0-8.1 10.8-12.4 8.7-1.7-0.8-1.8-2.4-2.4-5.1-0.3-1.4-0.1-2.9-0.1-2.9"/>
		<path id="Shape 5" class="s1" d="m72 161"/>
		<path id="Shape 2" class="s1" d="m117 101c0 0-2.4 2.1-9 6-6.6 3.9-9 1-9 1l-7-6"/>
		<path id="Shape 1" class="s2" d="m32 245c0 0 3.3-7.8 3-12-0.3-4.2 0.4-10.7 3-15 2.6-4.3 2.2-0.4-1-8-3.2-7.6-5.8-8.8 0-16 5.8-7.2 9-11 9-11 0 0 4.8-4.1 2-7-2.8-2.9-2.7-3.6-1-7 1.7-3.4 8-5.5 2-10-6-4.5-6.4-5.9-7-10-0.6-4.1 2.9-6.2-1-7-3.9-0.8-6-2.7-5-7 1-4.3 3.6-11.8 5-14 1.4-2.2 5-8 5-8 0 0 2.2-5.9 0-8-2.2-2.1-1.9-4.5 1-9 2.9-4.5 2.8-8.1 1-9-1.8-0.9-1.1-10 5-14 6.1-4 7-5 7-5 0 0 2.2-2.6 0-9-2.2-6.4-4.6-13.7-3-17 1.6-3.3 1.2-6.2 5-5 3.8 1.2 16 10 16 10 0 0 3.8 6.1 6 1 2.2-5.1 3.6-5.1 6-5 2.4 0.1 1.5 2 4 3 2.5 1 7-5 7-5 0 0 2.9-2.8 7-2 4.1 0.8 4.2-2.6 7-2 2.8 0.6 4.4 1.7 7 2 2.6 0.3 9.3-2.1 12-1 2.7 1.1 6 2 6 2 0 0 3.9-0.6 6-1 2.1-0.4 8 3 8 3l-1 4c0 0 19.3-30.4 22-25 2.7 5.4 6.2 4.5 5 17-1.2 12.5-3.2 15.8-3 17 0.2 1.2 8.5 7.9 10 12 1.5 4.1 1.7 2.3 4 7 2.3 4.7 4.7 5.9 6 16 1.3 10.1 3.5 10.9 4 18 0.5 7.1-0.6 10.5-1 17-0.4 6.5-3 2.1-2 8 1 5.9 4.7 6.2 5 11 0.3 4.8-1.1 5.6-2 10-0.9 4.4 0.7 8.3 3 11 2.3 2.7 2.6 3.4 0 9-2.6 5.6 3.2 4.5 0 11-3.2 6.5-2.4 7.4-2 13 0.4 5.6 0.2 13.2 1 17 0.8 3.8 1.9-0.1 4 7 2.1 7.1 4.4 9 4 16-0.4 7-2 7-2 7"/>
	</g>
</svg>